<?xml version="1.0" encoding="utf-8"?>
<!-- Uploaded to: SVG Repo, www.svgrepo.com, Generator: SVG Repo Mixer Tools -->
<svg width="800px" height="800px" viewBox="0 0 1024 1024" class="icon"  version="1.1" xmlns="http://www.w3.org/2000/svg"><path d="M772.672 575.808V448.192l70.848-70.848a370.688 370.688 0 0 0-56.512-97.664l-96.64 25.92-110.528-63.808-25.92-96.768a374.72 374.72 0 0 0-112.832 0l-25.92 96.768-110.528 63.808-96.64-25.92c-23.68 29.44-42.816 62.4-56.576 97.664l70.848 70.848v127.616l-70.848 70.848c13.76 35.264 32.832 68.16 56.576 97.664l96.64-25.92 110.528 63.808 25.92 96.768a374.72 374.72 0 0 0 112.832 0l25.92-96.768 110.528-63.808 96.64 25.92c23.68-29.44 42.816-62.4 56.512-97.664l-70.848-70.848z m39.744 254.848l-111.232-29.824-55.424 32-29.824 111.36c-37.76 10.24-77.44 15.808-118.4 15.808-41.024 0-80.768-5.504-118.464-15.808l-29.888-111.36-55.424-32-111.168 29.824A447.552 447.552 0 0 1 64 625.472L145.472 544v-64L64 398.528A447.552 447.552 0 0 1 182.592 193.28l111.168 29.824 55.424-32 29.888-111.36A448.512 448.512 0 0 1 497.472 64c41.024 0 80.768 5.504 118.464 15.808l29.824 111.36 55.424 32 111.232-29.824c56.32 55.68 97.92 126.144 118.592 205.184L849.472 480v64l81.536 81.472a447.552 447.552 0 0 1-118.592 205.184zM497.536 627.2a115.2 115.2 0 1 0 0-230.4 115.2 115.2 0 0 0 0 230.4z m0 76.8a192 192 0 1 1 0-384 192 192 0 0 1 0 384z" fill="#FFFFFF" /></svg>
